<svg width="200" height="200" viewBox="0 0 400 400" fill="none" xmlns="http://www.w3.org/2000/svg"><path d="M215.31 298.6c38.5 2.25 67.62 12.81 67.62 25.48 0 14.32-37.13 25.93-82.94 25.93-45.8 0-82.93-11.61-82.93-25.93 0-12.67 29.12-23.22 67.61-25.48" stroke="#2ADE72" stroke-width="12" stroke-miterlimit="10" stroke-linecap="round" stroke-linejoin="round"/><path d="M200 50c-52.42 0-94.74 42.37-94.74 94.62 0 16.43 6.24 34.94 11.56 45.36 17.47 34.23 82.13 129.95 82.13 129.95.48.8 1.64.8 2.11 0 0 0 64.66-95.71 82.13-129.95 5.32-10.42 11.56-28.93 11.56-45.36C294.74 92.36 252.42 50 200 50z" stroke="#191919" stroke-width="12" stroke-miterlimit="10" stroke-linecap="round" stroke-linejoin="round"/><path d="M198.81 97.64c.4-.01.79 0 1.19 0 25.88 0 46.82 21.16 46.46 47.13-.35 25.03-20.77 45.45-45.8 45.8-25.97.36-47.13-20.58-47.13-46.46 0-25.27 20.17-45.84 45.28-46.47z" stroke="#2ADE72" stroke-width="12" stroke-miterlimit="10" stroke-linecap="round" stroke-linejoin="round"/></svg>