<svg width="200" height="200" viewBox="0 0 400 400" fill="none" xmlns="http://www.w3.org/2000/svg"><path d="M198.01 200.26h151.47M106.79 354.92H227.2m-48.61-154.66H155.4v154.66h23.19V200.26z" stroke="#191919" stroke-width="12" stroke-miterlimit="10" stroke-linecap="round" stroke-linejoin="round"/><path d="M90.31 176.38h29.22" stroke="#2ADE72" stroke-width="12" stroke-miterlimit="10" stroke-linecap="round" stroke-linejoin="round"/><path d="M243.77 75.93H112.8c-25.28 0-45.77 20.49-45.77 45.77v78.46h131.13" stroke="#191919" stroke-width="12" stroke-miterlimit="10" stroke-linecap="round" stroke-linejoin="round"/><path d="M288.41 111.55c-4.62-20.39-22.85-35.62-44.64-35.62-25.28 0-45.77 20.49-45.77 45.77v78.46h91.53v-23.78" stroke="#191919" stroke-width="12" stroke-miterlimit="10" stroke-linecap="round" stroke-linejoin="round"/><path d="M159.87 46.55v54.4m22.38-56.03h-22.38v11.6h22.38v-11.6zm156.09 66.63H236.82v64.83h101.52v-64.83z" stroke="#2ADE72" stroke-width="12" stroke-miterlimit="10" stroke-linecap="round" stroke-linejoin="round"/><path d="M236.82 111.55l50.76 32.42 50.76-32.42" stroke="#2ADE72" stroke-width="12" stroke-miterlimit="10" stroke-linecap="round" stroke-linejoin="round"/><path d="M338.34 111.55H236.82v64.83h101.52v-64.83z" stroke="#2ADE72" stroke-width="12" stroke-miterlimit="10" stroke-linecap="round" stroke-linejoin="round"/></svg>